<svg version="1.1" xmlns="http://www.w3.org/2000/svg" xmlns:xlink="http://www.w3.org/1999/xlink" x="0" y="0" width="111.25" height="112.75" viewBox="-5 0 116.25 112.75" class='planet'>
<g transform="translate(55.625,56.375)"><g class='blue-ring'>
    <circle fill="none" stroke="#FFFFFF" stroke-width="1.693" stroke-linecap="round" stroke-miterlimit="10" stroke-dasharray="3.442,6.195" cx="0" cy="0" r="39.885"/>
</g></g>
<g transform='translate(55.625, 56.375)'><g class='blue-arrow'><g transform='translate(-55.625, -56.375)'>
    <path fill="none" stroke="#FFFFFF" stroke-width="1.693" stroke-linecap="round" stroke-miterlimit="10" d="M109.312,56.173
    c0,0.586-0.008,1.17-0.026,1.752"/>
    <path fill="none" stroke="#FFFFFF" stroke-width="1.693" stroke-linecap="round" stroke-miterlimit="10" stroke-dasharray="3.56,6.408" d="
    M108.702,64.306c-3.92,25.807-26.201,45.58-53.101,45.58c-29.665,0-53.713-24.049-53.713-53.713
    c0-26.664,19.428-48.789,44.9-52.992"/>
    <path fill="none" stroke="#FFFFFF" stroke-width="1.693" stroke-linecap="round" stroke-miterlimit="10" d="M49.97,2.752
    c0.579-0.06,1.161-0.111,1.746-0.153"/>
    <polygon fill="#FFFFFF" points="51.066,5.394 55.602,2.461 50.794,0 			"/>
</g></g></g>
<g transform='translate(55.625, 56.375)'><g class='orange-arrow'><g transform='translate(-55.625, -56.375)'>
    <path fill="none" stroke="#FF6B00" stroke-width="1.693" stroke-linecap="round" stroke-miterlimit="10" d="M102.336,65.662
        c0.102-0.51,0.193-1.02,0.277-1.527"/>

        <path fill="none" stroke="#FF6B00" stroke-width="1.693" stroke-linecap="round" stroke-miterlimit="10" stroke-dasharray="3.158,5.684" d="
        M103.204,58.48c1.032-23.126-14.949-44.169-38.353-48.801C39.04,4.572,13.976,21.354,8.867,47.165
        C4.276,70.363,17.37,92.961,38.81,101.004"/>
    <path fill="none" stroke="#FF6B00" stroke-width="1.693" stroke-linecap="round" stroke-miterlimit="10" d="M41.503,101.924
        c0.494,0.152,0.991,0.297,1.492,0.436"/>
    <polygon fill="#FF6B00" points="42.912,99.814 46.353,103.148 41.746,104.463 			"/>
</g></g></g>
<g>
	<g>
		<path fill="#FF6B00" d="M88.853,56.375c0,18.357-14.876,33.237-33.228,33.237s-33.228-14.88-33.228-33.237
			s14.876-33.238,33.228-33.238S88.853,38.018,88.853,56.375"/>
	</g>
	<g>
		<path fill="#F8A101" d="M75.604,46.402c0-7.183-1.872-13.925-5.144-19.778c-4.45-2.214-9.464-3.465-14.771-3.465
			c-18.351,0-33.228,14.881-33.228,33.238c0,13.294,7.805,24.76,19.079,30.076C60.853,83.349,75.604,66.602,75.604,46.402z"/>
		<g>
			<path fill="#FFEB20" d="M50.703,46.383c0-8.692-7.045-15.739-15.734-15.739c-0.127,0-0.249,0.016-0.375,0.019
				c-7.31,5.994-12.01,15.045-12.165,25.201c2.873,3.795,7.414,6.258,12.54,6.258C43.658,62.123,50.703,55.077,50.703,46.383z"/>
			<g>
				<path fill="#FFEB20" d="M56.883,80.592c-2.222-3.221-5.934-5.335-10.143-5.335c-5.081,0-9.441,3.077-11.324,7.469
					c1.275,0.983,2.62,1.881,4.033,2.674c0.007,0.004,0.013,0.008,0.02,0.011c0.651,0.365,1.318,0.707,1.996,1.029
					c0.024,0.011,0.049,0.022,0.073,0.034C47.117,85.57,52.311,83.524,56.883,80.592z"/>
				<g>
					<path fill="#FFEB20" d="M35.419,82.721c-0.003,0.006-0.006,0.011-0.008,0.016c1.273,0.979,2.624,1.864,4.033,2.654
						C38.034,84.599,36.692,83.703,35.419,82.721z"/>
					<path fill="#FFCF01" d="M41.54,86.468c4.279,2.012,9.055,3.145,14.098,3.145c1.102,0,2.189-0.057,3.264-0.162
						c0.096-0.614,0.158-1.239,0.158-1.879c0-2.595-0.806-4.999-2.175-6.985C52.313,83.519,47.119,85.565,41.54,86.468z"/>
					<path fill="#FFEB20" d="M41.462,86.432c-0.674-0.32-1.338-0.661-1.986-1.024C40.125,85.771,40.787,86.113,41.462,86.432z"/>
				</g>
			</g>
			<g>
				<path fill="#FFEB20" d="M72.691,31.297c-1.132,1.424-1.816,3.219-1.816,5.181c0,3.284,1.896,6.117,4.648,7.487
					C75.26,39.51,74.278,35.25,72.691,31.297z"/>
				<path fill="#FFCF01" d="M74.942,29.33c-0.862,0.52-1.616,1.196-2.24,1.98c1.588,3.953,2.569,8.213,2.833,12.668
					c1.12,0.557,2.378,0.878,3.714,0.878c2.537,0,4.805-1.133,6.338-2.917C83.147,36.891,79.466,32.561,74.942,29.33z"/>
			</g>
			<g>
				<path fill="#FFEB20" d="M72.122,60.167c-1.984,0-3.592,1.608-3.592,3.594c0,1.248,0.638,2.346,1.604,2.99
					c1.181-2.034,2.189-4.18,3.007-6.418C72.816,60.234,72.479,60.167,72.122,60.167z"/>
				<path fill="#FFCF01" d="M73.146,60.343c-0.817,2.239-1.826,4.384-3.007,6.418c0.569,0.379,1.252,0.602,1.987,0.602
					c1.982,0,3.59-1.608,3.59-3.592C75.717,62.144,74.629,60.786,73.146,60.343z"/>
			</g>
		</g>
	</g>
</g>
</svg>
