<svg xmlns="http://www.w3.org/2000/svg" xmlns:xlink="http://www.w3.org/1999/xlink" version="1.1" id="Layer_1" x="0" y="0" width="600" height="500" viewBox="0 0 149.35 124.1" class='stars'>
    <g class="star2">
        <path fill="none" stroke="#FFFFFF" stroke-width="1.67" stroke-linecap="round" stroke-miterlimit="10" d="M18.66 106.43c0.61-0.12 1.21-0.05 1.74 0.18 0.86 0.37 1.53 1.14 1.73 2.13 0.32 1.59-0.71 3.15-2.3 3.47 -1.59 0.32-3.15-0.71-3.47-2.3"/>
        <path fill="none" stroke="#EF5323" stroke-width="1.67" stroke-linecap="round" stroke-miterlimit="10" d="M23.58 114.26c-0.6 0.15-1.21 0.1-1.75-0.1 -0.87-0.33-1.58-1.07-1.82-2.05 -0.39-1.58 0.57-3.18 2.15-3.57s3.18 0.57 3.57 2.15"/>
        <path fill="none" stroke="#FFFFFF" stroke-width="1.67" stroke-linecap="round" stroke-miterlimit="10" d="M18.66 106.43c0.61-0.12 1.21-0.05 1.74 0.18 0.86 0.37 1.53 1.14 1.73 2.13 0.14 0.68 0.03 1.35-0.26 1.92"/>
    </g>
    <g class='star1'>
        <line fill="none" stroke="#EF5323" stroke-width="1.74" stroke-linecap="round" stroke-miterlimit="10" x1="35.83" y1="8.78" x2="37.37" y2="10.41"/>
        <line fill="none" stroke="#EF5323" stroke-width="1.74" stroke-linecap="round" stroke-miterlimit="10" x1="29.59" y1="2.18" x2="31.13" y2="3.81"/>
        <line fill="none" stroke="#EF5323" stroke-width="1.74" stroke-linecap="round" stroke-miterlimit="10" x1="36.8" y1="5.5" x2="38.99" y2="4.98"/>
        <line fill="none" stroke="#EF5323" stroke-width="1.74" stroke-linecap="round" stroke-miterlimit="10" x1="27.97" y1="7.61" x2="30.16" y2="7.09"/>
        <line fill="none" stroke="#EF5323" stroke-width="1.74" stroke-linecap="round" stroke-miterlimit="10" x1="34.45" y1="3.02" x2="35.09" y2="0.87"/>
        <line fill="none" stroke="#EF5323" stroke-width="1.74" stroke-linecap="round" stroke-miterlimit="10" x1="31.86" y1="11.72" x2="32.5" y2="9.57"/>
        <circle fill="none" stroke="#FFFFFF" stroke-width="1.74" stroke-linecap="round" stroke-miterlimit="10" cx="33.48" cy="6.29" r="3.25"/>
    </g>
    <g class='star3'>
        <defs>
            <rect id="SVGID_7_" x="141.36" y="86.17" width="7.99" height="7.99"/>
        </defs>
        <clipPath id="SVGID_8_">
            <use xlink:href="#SVGID_7_" overflow="visible"/>
        </clipPath>
        <line clip-path="url(#SVGID_8_)" fill="none" stroke="#FFFFFF" stroke-width="1.87" stroke-linecap="round" stroke-miterlimit="10" x1="145.44" y1="87.1" x2="145.27" y2="93.22"/>
        <line clip-path="url(#SVGID_8_)" fill="none" stroke="#FFFFFF" stroke-width="1.87" stroke-linecap="round" stroke-miterlimit="10" x1="148.42" y1="90.25" x2="142.29" y2="90.08"/>
        <defs>
            <rect id="SVGID_9_" x="142.2" y="87.01" width="6.32" height="6.32"/>
        </defs>
        <clipPath id="SVGID_10_">
            <use xlink:href="#SVGID_9_" overflow="visible"/>
        </clipPath>
        <line clip-path="url(#SVGID_10_)" fill="none" stroke="#EF5323" stroke-width="1.87" stroke-linecap="round" stroke-miterlimit="10" x1="147.58" y1="88.06" x2="143.13" y2="92.27"/>
        <line clip-path="url(#SVGID_10_)" fill="none" stroke="#EF5323" stroke-width="1.87" stroke-linecap="round" stroke-miterlimit="10" x1="147.46" y1="92.39" x2="143.25" y2="87.94"/>
    </g>
    <g class='star4'>
        <defs>
            <rect id="SVGID_11_" x="111.66" y="1.85" width="2.01" height="7.86"/>
        </defs>
        <clipPath id="SVGID_12_">
            <use xlink:href="#SVGID_11_" overflow="visible"/>
        </clipPath>
        <line clip-path="url(#SVGID_12_)" fill="none" stroke="#EF5323" stroke-width="1.84" stroke-linecap="round" stroke-miterlimit="10" x1="112.75" y1="2.77" x2="112.58" y2="8.79"/>
        <defs>
            <rect id="SVGID_13_" x="108.73" y="4.78" width="7.86" height="2.01"/>
        </defs>
        <clipPath id="SVGID_14_">
            <use xlink:href="#SVGID_13_" overflow="visible"/>
        </clipPath>
        <line clip-path="url(#SVGID_14_)" fill="none" stroke="#EF5323" stroke-width="1.84" stroke-linecap="round" stroke-miterlimit="10" x1="115.67" y1="5.87" x2="109.65" y2="5.7"/>
        <path fill="#FFFFFF" d="M110.63 2.72c-0.01 0.49-0.42 0.88-0.92 0.87 -0.49-0.01-0.88-0.42-0.87-0.92s0.43-0.88 0.92-0.87C110.25 1.81 110.64 2.22 110.63 2.72"/>
        <path fill="#FFFFFF" d="M116.51 2.88c-0.01 0.49-0.42 0.88-0.92 0.87 -0.49-0.01-0.88-0.42-0.87-0.92s0.43-0.88 0.92-0.87C116.13 1.97 116.52 2.38 116.51 2.88"/>
        <path fill="#FFFFFF" d="M110.46 8.73c-0.01 0.49-0.42 0.88-0.92 0.87 -0.49-0.01-0.88-0.42-0.87-0.92 0.02-0.49 0.43-0.88 0.92-0.87C110.09 7.83 110.48 8.24 110.46 8.73"/>
        <path fill="#FFFFFF" d="M116.34 8.9c-0.01 0.49-0.42 0.88-0.92 0.87 -0.49-0.01-0.88-0.42-0.87-0.92 0.02-0.49 0.43-0.88 0.92-0.87C115.96 7.99 116.36 8.4 116.34 8.9"/>
    </g>
  <path class="star5" fill="#FFFFFF" d="M147.06 50.41c-0.06 2.03-1.74 3.63-3.77 3.57 -2.03-0.06-3.63-1.74-3.57-3.77 0.06-2.03 1.75-3.63 3.77-3.57C145.52 46.7 147.12 48.39 147.06 50.41"/>
  <path class="star6" fill="#FF6B00" d="M120.09 122.11c-0.03 1.13-0.98 2.03-2.11 1.99 -1.13-0.03-2.03-0.97-2-2.11s0.98-2.02 2.11-1.99C119.23 120.03 120.13 120.98 120.09 122.11"/>
  <path class="star7" fill="#FF6B00" d="M140.47 20.12c-0.02 0.73-0.63 1.3-1.35 1.28 -0.73-0.02-1.3-0.63-1.28-1.35 0.02-0.73 0.63-1.3 1.35-1.28C139.91 18.79 140.49 19.39 140.47 20.12"/>
  <path class="star8" fill="#FFFFFF" d="M6.27 24.32c-0.01 0.53-0.46 0.95-0.99 0.94 -0.53-0.01-0.95-0.46-0.94-0.99 0.02-0.53 0.46-0.95 0.99-0.94C5.87 23.35 6.29 23.79 6.27 24.32"/>
  <path class="star9" fill="#FF6B00" d="M5.12 72.06c-0.04 1.41-1.22 2.53-2.63 2.49 -1.41-0.04-2.53-1.22-2.49-2.63 0.04-1.41 1.22-2.52 2.63-2.49S5.15 70.65 5.12 72.06"/>
</svg>
