<?xml version="1.0" standalone="no"?>
<!DOCTYPE svg PUBLIC "-//W3C//DTD SVG 20010904//EN"
 "http://www.w3.org/TR/2001/REC-SVG-20010904/DTD/svg10.dtd">
<svg version="1.0" xmlns="http://www.w3.org/2000/svg"
 width="615.000000pt" height="615.000000pt" viewBox="0 0 615.000000 615.000000"
 preserveAspectRatio="xMidYMid meet">
<metadata>
Created by potrace 1.11, written by Peter Selinger 2001-2013
</metadata>
<g transform="translate(0.000000,615.000000) scale(0.100000,-0.100000)"
fill="#000000" stroke="none">
<path d="M4108 4645 c-1 -1 -28 -5 -58 -9 -30 -3 -66 -8 -80 -11 -14 -3 -35
-7 -47 -9 -108 -22 -292 -91 -396 -149 -137 -77 -274 -188 -394 -320 l-43 -46
-112 112 c-178 177 -284 236 -406 225 -235 -22 -364 -287 -236 -489 13 -21 56
-64 95 -95 154 -122 242 -244 298 -410 29 -87 33 -117 37 -244 5 -175 -37
-327 -129 -468 -295 -453 -921 -514 -1300 -127 -77 79 -148 194 -185 300 -36
108 -46 168 -45 290 1 99 5 135 27 210 55 183 151 323 304 445 97 77 136 130
153 209 43 201 -102 383 -305 384 -87 1 -140 -21 -241 -97 -71 -54 -198 -178
-256 -251 -158 -198 -271 -465 -306 -720 -10 -74 -10 -312 0 -382 7 -49 27
-147 45 -223 23 -92 107 -272 180 -385 141 -219 357 -410 592 -523 74 -35 166
-72 194 -78 11 -2 40 -10 65 -18 151 -48 436 -63 611 -31 14 3 41 7 60 10 128
21 323 97 460 180 249 150 437 356 565 620 103 212 139 368 150 645 4 122 8
148 29 221 90 305 346 535 661 594 70 13 205 12 285 -2 340 -59 623 -340 677
-672 10 -58 10 -254 0 -305 -31 -163 -116 -317 -243 -441 -156 -153 -369 -238
-589 -236 -73 0 -118 7 -210 30 -136 34 -248 7 -335 -80 -64 -65 -84 -117 -84
-219 0 -100 21 -153 83 -218 54 -55 101 -78 223 -107 219 -52 467 -51 673 2
33 8 65 16 70 17 34 7 133 45 214 83 332 153 619 461 746 799 33 87 72 235 80
304 4 30 9 64 11 75 2 11 5 70 5 130 6 457 -197 884 -556 1167 -189 149 -422
255 -645 293 -19 4 -48 9 -65 12 -34 5 -321 13 -327 8z"/>
<path d="M4146 3444 c-65 -20 -146 -101 -169 -167 -19 -57 -16 -155 7 -207 18
-42 59 -88 104 -119 104 -72 268 -50 353 46 51 59 70 113 68 191 -3 119 -67
211 -175 252 -64 23 -120 25 -188 4z"/>
</g>
</svg>
